<svg width="45" height="45" viewBox="0 0 32 32" fill="none" xmlns="http://www.w3.org/2000/svg">
<path d="M0 0H32V32H0V0Z" fill="#369CA5"/>
<path d="M12.1733 20.471C12.3184 20.3259 12.3184 20.1027 12.1733 19.9576L7.78711 15.5714L12.1733 11.1853C12.3184 11.0402 12.3184 10.817 12.1733 10.6719L11.6152 10.1138C11.4701 9.96875 11.2469 9.96875 11.1018 10.1138L5.90095 15.3147C5.75586 15.4598 5.75586 15.683 5.90095 15.8281L11.1018 21.029C11.2469 21.1741 11.4701 21.1741 11.6152 21.029L12.1733 20.471ZM18.7693 8.5625C18.8251 8.37277 18.7134 8.17187 18.5237 8.11607L17.8318 7.92634C17.6532 7.87054 17.4523 7.98214 17.3965 8.17187L13.2335 22.5804C13.1777 22.7701 13.2893 22.971 13.4791 23.0268L14.171 23.2165C14.3496 23.2723 14.5505 23.1607 14.6063 22.971L18.7693 8.5625ZM26.1018 15.8281C26.2469 15.683 26.2469 15.4598 26.1018 15.3147L20.9009 10.1138C20.7559 9.96875 20.5326 9.96875 20.3876 10.1138L19.8295 10.6719C19.6844 10.817 19.6844 11.0402 19.8295 11.1853L24.2157 15.5714L19.8295 19.9576C19.6844 20.1027 19.6844 20.3259 19.8295 20.471L20.3876 21.029C20.5326 21.1741 20.7559 21.1741 20.9009 21.029L26.1018 15.8281Z" fill="white"/>
</svg>
