<svg width="58" height="58" viewBox="0 0 58 58" fill="none" xmlns="http://www.w3.org/2000/svg">
<rect width="58" height="58" fill="#36BFA5"/>
<path d="M20.7964 37.12C20.8497 37.28 20.8764 37.4667 20.8764 37.68C20.9031 37.8933 20.9164 38.0933 20.9164 38.28C20.9164 38.76 20.8631 39.2133 20.7564 39.64C20.6497 40.0667 20.4764 40.44 20.2364 40.76C19.9964 41.08 19.6764 41.3467 19.2764 41.56C18.9031 41.7467 18.4231 41.84 17.8364 41.84C17.2764 41.84 16.7164 41.72 16.1564 41.48C15.6231 41.24 14.9564 40.8933 14.1564 40.44L5.55641 35.48C4.86307 34.5733 4.51641 33.3733 4.51641 31.88C4.51641 30.76 4.67641 29.8933 4.99641 29.28C5.31641 28.6667 5.78307 28.1867 6.39641 27.84L17.3964 21.44C18.7031 21.7867 19.5831 22.2667 20.0364 22.88C20.5164 23.4667 20.7564 24.1067 20.7564 24.8C20.7564 25.7333 20.5164 26.4667 20.0364 27C19.5831 27.5067 18.9031 27.9867 17.9964 28.44L10.9564 32L20.7964 37.12ZM27.7845 46.24C27.4112 46.2933 27.0512 46.32 26.7045 46.32C26.3579 46.3467 26.0379 46.36 25.7445 46.36C24.6245 46.36 23.7579 46.12 23.1445 45.64C22.5579 45.16 22.2645 44.3867 22.2645 43.32C22.2645 42.6 22.3712 41.88 22.5845 41.16C22.7979 40.4133 22.9845 39.76 23.1445 39.2L30.1845 13.8C30.5845 13.7467 30.9579 13.72 31.3045 13.72C31.6512 13.6933 31.9712 13.68 32.2645 13.68C33.3312 13.68 34.1712 13.9067 34.7845 14.36C35.4245 14.8133 35.7445 15.5467 35.7445 16.56C35.7445 17.3333 35.6379 18.0667 35.4245 18.76C35.2112 19.4533 35.0112 20.1467 34.8245 20.84L27.7845 46.24ZM37.2155 26.16C37.1621 26 37.1221 25.8133 37.0955 25.6C37.0955 25.3867 37.0955 25.1867 37.0955 25C37.0955 24.52 37.1488 24.0667 37.2555 23.64C37.3621 23.2133 37.5355 22.84 37.7755 22.52C38.0155 22.2 38.3221 21.9467 38.6955 21.76C39.0955 21.5467 39.5888 21.44 40.1755 21.44C40.7355 21.44 41.2821 21.56 41.8155 21.8C42.3755 22.04 43.0555 22.3867 43.8555 22.84L52.4555 27.8C53.1488 28.7067 53.4955 29.9067 53.4955 31.4C53.4955 32.52 53.3355 33.3867 53.0155 34C52.6955 34.6133 52.2288 35.0933 51.6155 35.44L40.6155 41.84C39.3088 41.4933 38.4155 41.0267 37.9355 40.44C37.4821 39.8267 37.2555 39.1733 37.2555 38.48C37.2555 37.5467 37.4821 36.8267 37.9355 36.32C38.4155 35.7867 39.1088 35.2933 40.0155 34.84L47.0555 31.28L37.2155 26.16Z" fill="black" fill-opacity="0.84"/>
</svg>
